<svg id="visual" viewBox="0 0 1920 759" width="1920" height="759" xmlns="http://www.w3.org/2000/svg" xmlns:xlink="http://www.w3.org/1999/xlink" version="1.1"><rect x="0" y="0" width="1920" height="759" fill="#001122"></rect><defs><linearGradient id="grad1_0" x1="60.5%" y1="0%" x2="100%" y2="100%"><stop offset="-0.5928853754940739%" stop-color="#a90a96" stop-opacity="1"></stop><stop offset="100.59288537549406%" stop-color="#a90a96" stop-opacity="1"></stop></linearGradient></defs><defs><linearGradient id="grad1_1" x1="60.5%" y1="0%" x2="100%" y2="100%"><stop offset="-0.5928853754940739%" stop-color="#a90a96" stop-opacity="1"></stop><stop offset="100.59288537549406%" stop-color="#001122" stop-opacity="1"></stop></linearGradient></defs><defs><linearGradient id="grad2_0" x1="0%" y1="0%" x2="39.5%" y2="100%"><stop offset="-0.5928853754940739%" stop-color="#a90a96" stop-opacity="1"></stop><stop offset="100.59288537549406%" stop-color="#a90a96" stop-opacity="1"></stop></linearGradient></defs><defs><linearGradient id="grad2_1" x1="0%" y1="0%" x2="39.5%" y2="100%"><stop offset="-0.5928853754940739%" stop-color="#001122" stop-opacity="1"></stop><stop offset="100.59288537549406%" stop-color="#a90a96" stop-opacity="1"></stop></linearGradient></defs><g transform="translate(1920, 0)"><path d="M0 379.5C-11 291.1 -22.1 202.6 -66.7 205.4C-111.4 208.2 -189.8 302.3 -223.1 307C-256.3 311.7 -244.5 227.1 -245.1 178.1C-245.8 129.1 -258.9 115.8 -283.4 92.1C-307.9 68.4 -343.7 34.2 -379.5 0L0 0Z" fill="#322b6e"></path><path d="M0 189.8C-5.5 145.5 -11 101.3 -33.4 102.7C-55.7 104.1 -94.9 151.2 -111.5 153.5C-128.2 155.9 -122.2 113.5 -122.6 89C-122.9 64.6 -129.5 57.9 -141.7 46C-153.9 34.2 -171.8 17.1 -189.7 0L0 0Z" fill="#a90a96"></path></g><g transform="translate(0, 759)"><path d="M0 -379.5C23.4 -334.8 46.8 -290.2 94.6 -291C142.3 -291.9 214.3 -338.3 223.1 -307C231.8 -275.7 177.2 -166.8 161.8 -117.6C146.4 -68.3 170.2 -78.9 213 -69.2C255.9 -59.6 317.7 -29.8 379.5 0L0 0Z" fill="#322b6e"></path><path d="M0 -189.7C11.7 -167.4 23.4 -145.1 47.3 -145.5C71.1 -145.9 107.2 -169.2 111.5 -153.5C115.9 -137.9 88.6 -83.4 80.9 -58.8C73.2 -34.2 85.1 -39.4 106.5 -34.6C127.9 -29.8 158.8 -14.9 189.8 0L0 0Z" fill="#a90a96"></path></g></svg>