<svg id="visual" viewBox="0 0 1920 740" width="1920" height="740" xmlns="http://www.w3.org/2000/svg" xmlns:xlink="http://www.w3.org/1999/xlink" version="1.1"><path d="M0 53L40 55.5C80 58 160 63 240 61.7C320 60.3 400 52.7 480 53.8C560 55 640 65 720 75C800 85 880 95 960 97.5C1040 100 1120 95 1200 85C1280 75 1360 60 1440 64.8C1520 69.7 1600 94.3 1680 95.7C1760 97 1840 75 1880 64L1920 53L1920 0L1880 0C1840 0 1760 0 1680 0C1600 0 1520 0 1440 0C1360 0 1280 0 1200 0C1120 0 1040 0 960 0C880 0 800 0 720 0C640 0 560 0 480 0C400 0 320 0 240 0C160 0 80 0 40 0L0 0Z" fill="#004cbb"></path><path d="M0 230L40 231.3C80 232.7 160 235.3 240 229.2C320 223 400 208 480 210.5C560 213 640 233 720 243C800 253 880 253 960 243C1040 233 1120 213 1200 198.2C1280 183.3 1360 173.7 1440 186C1520 198.3 1600 232.7 1680 232.7C1760 232.7 1840 198.3 1880 181.2L1920 164L1920 51L1880 62C1840 73 1760 95 1680 93.7C1600 92.3 1520 67.7 1440 62.8C1360 58 1280 73 1200 83C1120 93 1040 98 960 95.5C880 93 800 83 720 73C640 63 560 53 480 51.8C400 50.7 320 58.3 240 59.7C160 61 80 56 40 53.5L0 51Z" fill="#2573ff"></path><path d="M0 445L40 443.8C80 442.7 160 440.3 240 424.3C320 408.3 400 378.7 480 384.8C560 391 640 433 720 439.2C800 445.3 880 415.7 960 420.5C1040 425.3 1120 464.7 1200 477C1280 489.3 1360 474.7 1440 478.3C1520 482 1600 504 1680 486.7C1760 469.3 1840 412.7 1880 384.3L1920 356L1920 162L1880 179.2C1840 196.3 1760 230.7 1680 230.7C1600 230.7 1520 196.3 1440 184C1360 171.7 1280 181.3 1200 196.2C1120 211 1040 231 960 241C880 251 800 251 720 241C640 231 560 211 480 208.5C400 206 320 221 240 227.2C160 233.3 80 230.7 40 229.3L0 228Z" fill="#6198ff"></path><path d="M0 682L40 677C80 672 160 662 240 647.2C320 632.3 400 612.7 480 617.7C560 622.7 640 652.3 720 662.2C800 672 880 662 960 660.7C1040 659.3 1120 666.7 1200 660.5C1280 654.3 1360 634.7 1440 627.3C1520 620 1600 625 1680 620.2C1760 615.3 1840 600.7 1880 593.3L1920 586L1920 354L1880 382.3C1840 410.7 1760 467.3 1680 484.7C1600 502 1520 480 1440 476.3C1360 472.7 1280 487.3 1200 475C1120 462.7 1040 423.3 960 418.5C880 413.7 800 443.3 720 437.2C640 431 560 389 480 382.8C400 376.7 320 406.3 240 422.3C160 438.3 80 440.7 40 441.8L0 443Z" fill="#2573ff"></path><path d="M0 741L40 741C80 741 160 741 240 741C320 741 400 741 480 741C560 741 640 741 720 741C800 741 880 741 960 741C1040 741 1120 741 1200 741C1280 741 1360 741 1440 741C1520 741 1600 741 1680 741C1760 741 1840 741 1880 741L1920 741L1920 584L1880 591.3C1840 598.7 1760 613.3 1680 618.2C1600 623 1520 618 1440 625.3C1360 632.7 1280 652.3 1200 658.5C1120 664.7 1040 657.3 960 658.7C880 660 800 670 720 660.2C640 650.3 560 620.7 480 615.7C400 610.7 320 630.3 240 645.2C160 660 80 670 40 675L0 680Z" fill="#004cbb"></path></svg>